# xmcd
#
# Track frame offsets: 
#        150
#        21500
#        37050
#        56385
#        68350
#        89949
#        103168
#        128354
#        149586
#        177549
#        191318
#        209844
#        241638
#
# Disc length: 3468 seconds
#
# Revision: 0
# Processed by: cddbd v1.5.2PL0 Copyright (c) Steve Scherf et al.
# Submitted via: ExactAudioCopy v1.3
#
DISCID=bf0d8a0d
DTITLE=HeavyDrunk - Holywater
DYEAR=2019
DGENRE=Blues
TTITLE0=If I Loved You Hard Enough
TTITLE1=Walking To the Mission In the Rain
TTITLE2=HeavyDrunk Holywater
TTITLE3=One Dancing Fool
TTITLE4=I Can't Be Satisfied
TTITLE5=Keeping Up With the Kid
TTITLE6=High On Love
TTITLE7=Memphis
TTITLE8=Somebody’s Got To Take Them Panties Off
TTITLE9=Pick You Up Along the Way
TTITLE10=Slave
TTITLE11=Midnight In Harlem
TTITLE12=Shine On
EXTD=
EXTT0=
EXTT1=
EXTT2=
EXTT3=
EXTT4=
EXTT5=
EXTT6=
EXTT7=
EXTT8=
EXTT9=
EXTT10=
EXTT11=
EXTT12=
PLAYORDER=
